<svg xmlns="http://www.w3.org/2000/svg" xmlns:xlink="http://www.w3.org/1999/xlink" version="1.1" x="0px" y="0px" viewBox="0 0 100 125" enable-background="new 0 0 100 100" xml:space="preserve"><g><path fill="#000000" d="M61.549,38.789c-6.935,1.731-9.566,7.37-12.95,10.175c-3.44-4.054-6.317-9.133-13.204-12.115   c-8.39-3.629-14.9,4.253-13.333,10.716c3.143,12.946,16.385,22.624,24.236,32.677c9.39-8.634,22.287-15.254,27.497-27.514   C76.398,46.608,70.414,36.577,61.549,38.789z"/><path fill="#000000" d="M97.462,35.035c-4.236,2.349-8.875,3.019-12.81,2.368c0,0,2.776-0.735,5.782-1.427   c4.209-0.967,9.695-4.567,8.361-6.912c-0.613-1.072-2.153-1.423-5.42-0.778c-3.337,0.656-11.562,4.574-17.959,13.182   c0,0,2.964,3.729,2.27,7.565c0,0,4.458,1.334,11.383-0.625c2.851-0.807,6.112-2.264,5.389-5.511c0,0-5.292,1.219-9.399-0.482   c0,0,6.932-0.312,10.188-1.826C100.92,37.951,97.462,35.035,97.462,35.035z"/><path fill="#000000" d="M8.093,20.872c-3.028-1.381-4.608-1.395-5.452-0.494c-1.839,1.975,2.669,6.746,6.541,8.656   c2.766,1.365,5.297,2.721,5.297,2.721c-3.979-0.272-8.338-1.996-11.918-5.259c0,0-4.037,2.04,0.874,5.916   c2.819,2.224,9.494,4.127,9.494,4.127c-4.391,0.708-9.258-1.699-9.258-1.699c-1.454,2.992,1.383,5.164,3.973,6.605   c6.284,3.503,10.93,3.234,10.93,3.234c0.215-4.883,3.735-7.336,3.735-7.336C18.067,27.493,11.189,22.28,8.093,20.872z"/></g><text x="0" y="115" fill="#000000" font-size="5px" font-weight="bold" font-family="'Helvetica Neue', Helvetica, Arial-Unicode, Arial, Sans-serif">Created by Matthew Hawdon</text><text x="0" y="120" fill="#000000" font-size="5px" font-weight="bold" font-family="'Helvetica Neue', Helvetica, Arial-Unicode, Arial, Sans-serif">from the Noun Project</text></svg>